<?xml version="1.0" encoding="UTF-8" standalone="no" ?>
<!DOCTYPE svg PUBLIC "-//W3C//DTD SVG 1.1//EN" "http://www.w3.org/Graphics/SVG/1.1/DTD/svg11.dtd">
<svg xmlns="http://www.w3.org/2000/svg" xmlns:xlink="http://www.w3.org/1999/xlink" version="1.1" width="1080" height="1080" viewBox="0 0 1080 1080" xml:space="preserve">
<desc>Created with Fabric.js 5.2.4</desc>
<defs>
</defs>
<g transform="matrix(1 0 0 1 540 540)" id="e4858530-5791-4c86-8b4c-f4f8de813d45"  >
<rect style="stroke: none; stroke-width: 1; stroke-dasharray: none; stroke-linecap: butt; stroke-dashoffset: 0; stroke-linejoin: miter; stroke-miterlimit: 4; fill: rgb(255,255,255); fill-rule: nonzero; opacity: 1; visibility: hidden;" vector-effect="non-scaling-stroke"  x="-540" y="-540" rx="0" ry="0" width="1080" height="1080" />
</g>
<g transform="matrix(1 0 0 1 540 540)" id="511ebc73-0f0b-433c-931c-99d1c578db56"  >
</g>
<g transform="matrix(1 0 0 1 540 540)" id="936c11e9-3c0a-4b3a-bd81-c84cbf5e3301"  >
<path style="stroke: rgb(97,218,251); stroke-width: 0; stroke-dasharray: none; stroke-linecap: butt; stroke-dashoffset: 0; stroke-linejoin: miter; stroke-miterlimit: 4; fill: rgb(97,218,251); fill-rule: nonzero; opacity: 1;" vector-effect="non-scaling-stroke"  transform=" translate(-12, -12)" d="M 12 2.2467 C 7.095411796678423 2.246903380472139 2.9147843143404657 5.803929297739865 2.129133204721823 10.645183042327085 C 1.3434820951031803 15.486436786914306 4.184698249687363 20.18298555011517 8.837519999999994 21.73419 C 9.33752 21.821710000000003 9.52502 21.521720000000002 9.52502 21.25919 C 9.52502 21.0217 9.512509999999999 20.23419 9.512509999999999 19.3967 C 7 19.85919 6.35 18.78423 6.15 18.22173 C 5.9280757263816515 17.67465491762798 5.576275502683603 17.189846751793635 5.125 16.8092 C 4.775 16.6217 4.275 16.159200000000002 5.11249 16.146720000000002 C 5.761496331160814 16.217144039066216 6.335356487424806 16.599703791110695 6.65 17.17169 C 6.926231385575617 17.667921463114073 7.388597727891597 18.033814924646965 7.935032531332876 18.188600094961973 C 8.481467334774155 18.343385265276982 9.067037672529361 18.27433427512886 9.56248 17.99669 C 9.60577105015087 17.488312559290176 9.832339588437858 17.012992009005767 10.2 16.65923 C 7.975 16.40923 5.6499999999999995 15.546690000000002 5.6499999999999995 11.72173 C 5.635947712562064 10.727875498664416 6.0026853363958015 9.766307338612542 6.674999999999999 9.03423 C 6.369281793263749 8.170449459210788 6.405052952526662 7.222513738743572 6.774999999999998 6.384230000000004 C 6.774999999999999 6.3842300000000005 7.612469999999998 6.121720000000001 9.524999999999999 7.409230000000001 C 11.161288062583502 6.95920330387956 12.888711937416494 6.95920330387956 14.524999999999999 7.409230000000001 C 16.437479999999997 6.109230000000001 17.275 6.3842300000000005 17.275 6.3842300000000005 C 17.644997261417146 7.222502157368233 17.68076915069784 8.170457223306675 17.375 9.034230000000003 C 18.049339187740394 9.765054346722078 18.416397019575683 10.727462076534115 18.4 11.721729999999997 C 18.4 15.5592 16.062479999999997 16.40923 13.837499999999999 16.65923 C 14.32039256571601 17.14866821901302 14.566729796338093 17.823814702940215 14.5125 18.509230000000002 C 14.5125 19.846750000000004 14.499989999999999 20.92171 14.499989999999999 21.259230000000002 C 14.499989999999999 21.52174 14.687489999999999 21.83423 15.187489999999999 21.734230000000004 C 19.831735821889872 20.170497693311155 22.6599114544525 15.47310810059709 21.868880169716522 10.636937354263486 C 21.077848884980547 5.800766607929882 16.90043584552367 2.249250496163654 11.999999999999998 2.2467000000000006 Z" stroke-linecap="round" />
</g>
<g transform="matrix(NaN NaN NaN NaN 0 0)"  >
<g style=""   >
</g>
</g>
<g transform="matrix(NaN NaN NaN NaN 0 0)"  >
<g style=""   >
</g>
</g>
<g transform="matrix(NaN NaN NaN NaN 0 0)"  >
<g style=""   >
</g>
</g>
<g transform="matrix(NaN NaN NaN NaN 0 0)"  >
<g style=""   >
</g>
</g>
<g transform="matrix(NaN NaN NaN NaN 0 0)"  >
<g style=""   >
</g>
</g>
<g transform="matrix(NaN NaN NaN NaN 0 0)"  >
<g style=""   >
</g>
</g>
</svg>